<svg width="24" height="24" viewBox="0 0 24 24" fill="none" xmlns="http://www.w3.org/2000/svg">
    <path fill-rule="evenodd" clip-rule="evenodd"
        d="M15.707 17.293a1 1 0 0 1-1.414 1.414l-6-6a1 1 0 0 1 0-1.414l6-6a1 1 0 1 1 1.414 1.414L10.414 12l5.293 5.293z"
        fill="#0D1F3C" />
    <mask id="gni7uk6twa" style="mask-type:luminance" maskUnits="userSpaceOnUse" x="8" y="5" width="8" height="14">
        <path fill-rule="evenodd" clip-rule="evenodd"
            d="M15.707 17.293a1 1 0 0 1-1.414 1.414l-6-6a1 1 0 0 1 0-1.414l6-6a1 1 0 1 1 1.414 1.414L10.414 12l5.293 5.293z"
            fill="#fff" />
    </mask>
    <g mask="url(#gni7uk6twa)">
        <path fill="#347AF0" d="M0 0h24v24H0z" />
    </g>
</svg>